<svg xmlns="http://www.w3.org/2000/svg" viewBox="0 0 2461.71 274.75"><defs><style>.cls-1,.cls-7{font-size:75.74px;}.cls-1,.cls-4,.cls-7,.cls-8{fill:#967053;}.cls-1,.cls-4{font-family:EBGaramond-SemiBold, EB Garamond;}.cls-1,.cls-4,.cls-7{font-weight:700;}.cls-2{letter-spacing:-0.09em;}.cls-3{letter-spacing:0em;}.cls-4{font-size:163.13px;}.cls-5{letter-spacing:-0.04em;}.cls-6{fill:none;stroke:#967053;stroke-miterlimit:10;stroke-width:0.75px;}.cls-7{font-family:EBGaramond-Bold, EB Garamond;}.cls-9{letter-spacing:-0.01em;}.cls-10{letter-spacing:-0.01em;}.cls-11{letter-spacing:0em;}</style></defs><title>aAsset 6</title><g id="Layer_2" data-name="Layer 2"><g id="Layer_1-2" data-name="Layer 1"><text class="cls-1" transform="translate(1407.58 210.31)">JUM<tspan class="cls-2" x="152.54" y="0">A</tspan><tspan class="cls-3" x="199.2" y="0">T</tspan></text><text class="cls-4" transform="translate(1800.92 221.89)">03</text><text class="cls-1" transform="translate(2034.83 210.31)">N<tspan class="cls-5" x="60.9" y="0">O</tspan><tspan x="115.5" y="0">VEMBER</tspan></text><line class="cls-6" x1="1757.75" y1="239.45" x2="1757.75" y2="105.4"/><line class="cls-6" x1="2022.02" y1="239.45" x2="2022.02" y2="105.4"/><line class="cls-6" x1="1336.51" y1="269.03" x2="2429.18" y2="269.03"/><text class="cls-7" transform="translate(1742.34 62.49)">RESEPSI</text><path class="cls-8" d="M1599.18,34.69c0-3.66,4.14-6.63,9.24-6.63s9.24,3,9.24,6.63-4.13,6.64-9.24,6.64S1599.18,38.36,1599.18,34.69Z"/><path class="cls-8" d="M2147.24,34.69c0-3.66,4.14-6.63,9.24-6.63s9.25,3,9.25,6.63-4.14,6.64-9.25,6.64S2147.24,38.36,2147.24,34.69Z"/><text class="cls-1" transform="translate(75.54 210.31)">KAMIS</text><text class="cls-4" transform="translate(460.58 221.89)">02</text><text class="cls-1" transform="translate(698.32 210.31)">N<tspan class="cls-5" x="60.9" y="0">O</tspan><tspan x="115.5" y="0">VEMBER</tspan></text><line class="cls-6" x1="421.24" y1="239.45" x2="421.24" y2="105.4"/><line class="cls-6" x1="685.51" y1="239.45" x2="685.51" y2="105.4"/><line class="cls-6" y1="269.03" x2="1092.67" y2="269.03"/><text class="cls-7" transform="translate(301.38 62.49)"><tspan class="cls-9">A</tspan><tspan x="53.63" y="0">K</tspan><tspan class="cls-10" x="111.42" y="0">A</tspan><tspan class="cls-11" x="165.04" y="0">D NIK</tspan><tspan class="cls-9" x="387.64" y="0">A</tspan><tspan x="441.27" y="0">H</tspan></text><path class="cls-8" d="M262.67,34.69c0-3.66,4.14-6.63,9.24-6.63s9.24,3,9.24,6.63-4.13,6.64-9.24,6.64S262.67,38.36,262.67,34.69Z"/><path class="cls-8" d="M810.73,34.69c0-3.66,4.14-6.63,9.24-6.63s9.25,3,9.25,6.63-4.14,6.64-9.25,6.64S810.73,38.36,810.73,34.69Z"/></g></g></svg>