<svg xmlns="http://www.w3.org/2000/svg" viewBox="0 0 851.18 380.35"><defs><style>.cls-1{fill:#826148;}</style></defs><title>asave</title><g id="Layer_2" data-name="Layer 2"><g id="Layer_1-2" data-name="Layer 1"><path class="cls-1" d="M696.06,133.37c-4.43-.43-8.71-1-13-1.24-12.45-.7-24.91-1.92-37.35-1.73-13.93.21-27.39,3.43-39.45,10.92-8.72,5.42-14.7,12.87-16.66,23.22-.13.67-1.37,1.73-1.84,1.61-1.33-.34-3.07-.9-3.62-1.93a7.58,7.58,0,0,1-.33-4.62c1.44-7.76,5.79-13.82,11.74-18.72,8.84-7.27,19.36-10.88,30.34-13.31,15.7-3.47,31.61-3.58,47.56-2.42,8,.58,16,1.31,24.15,2,1.29-4.6,2.41-9,3.79-13.42,1.47-4.64,3.15-9.2,4.81-13.77a15.52,15.52,0,0,1,1.59-3,4.74,4.74,0,0,1,5.3-2.13c2.16.44,3.66,1.89,3.63,4-.08,6.07-.3,12.16-.8,18.21-.32,3.75-1.24,7.45-2,11.59,6.75.18,13.19.64,19.61.47,17.41-.46,34.35-3.45,50.18-11,21.9-10.5,36.44-27.28,41.57-51.23,3.69-17.17,1.23-33.57-9.73-47.85-5.93-7.73-13.49-13.44-23.66-14.13a22.12,22.12,0,0,0-9.51,1.54c-15.57,6.28-26,24.69-24,41.48a41.54,41.54,0,0,0,5.09,16.06c.73,1.25,1.32,2.44,3.26,1.71.78-.3,1.91.32,3,.55-2.49,4.17-7.77,4.5-11.19.75a40.53,40.53,0,0,1-9.3-17.69C742.89,23.43,766.5-2.94,792.86.27c17.71,2.15,28.86,12.79,35.35,28.47,9.36,22.59,6,44.27-7,64.53-10.46,16.37-25.77,26.69-43.81,33.24-18.57,6.75-37.77,9.09-57.43,8.22-2.38-.1-4.76,0-7.38,0-1.13,4.87-2.33,9.83-3.44,14.82-3.23,14.59-6.71,29.13-9.56,43.79a100.06,100.06,0,0,0-.89,33.3c.3,2.1,1.25,4.11,2.18,7,2.17-2.18,4-3.49,5.14-5.27a119.7,119.7,0,0,0,6.55-12.11c2.54-5.45,4.69-11.07,7.1-16.58a75.5,75.5,0,0,0,6.21-21.78c1.42-12.07,5.8-23.19,14.4-32.16,5-5.21,11.17-7,18.2-5,4,1.14,5.92,3.95,6,8.06.23,10.37-6.49,19.47-15.55,20.94a36,36,0,0,1-5.24,0c-.91,4-1.91,8.08-2.78,12.19-1.81,8.58-2.25,17.18-.26,25.81a19.39,19.39,0,0,0,.82,2.79c1.76,4.53,4.83,5.67,8.56,2.71a36.68,36.68,0,0,0,7.29-7.59c8.5-12.25,16.14-25,20-39.6.49-1.88,1.42-2.8,3.93-1.53-1.67,5.11-3,10.41-5.09,15.43A153.19,153.19,0,0,1,759,210.43c-7.65,10.83-21.16,10.23-28-1.16-2.07-3.46-3.47-7.32-5.29-11.24-.36.79-.74,1.61-1.11,2.44-3.53,8-6.91,16.09-10.67,24a28.61,28.61,0,0,1-5.52,7.72c-5.34,5.36-12.56,4.29-16.14-2.31-6-11.14-7.69-23.23-7.18-35.72,0-.71.09-1.41.13-2.12a6.67,6.67,0,0,0-.23-.75c-.5,1.08-.86,1.8-1.16,2.54-5.87,14.33-11.62,28.7-17.67,43a54.7,54.7,0,0,1-6.38,11,10.62,10.62,0,0,1-16.81.46,33.81,33.81,0,0,1-7.86-19.95c-.51-7.27.09-14.63.22-21.94a4.1,4.1,0,0,0-.44-2.5c-1.78,4-3.66,7.94-5.31,12-2.37,5.81-4.46,11.74-6.9,17.52a72.14,72.14,0,0,1-4.4,8.16c-4.35,7.46-15.86,6.4-19.56-.86a40.21,40.21,0,0,1-4-25.24,50.89,50.89,0,0,1,18.54-32.13,24.93,24.93,0,0,1,8.66-4.37c7.93-2.34,12.64,0,16,7.72,1.72-3.24,3.3-6.33,5-9.35,2.26-4,8.57-5.22,12.23-2.44,1.86,1.41,1.79,3.39,1.43,5.32-.8,4.43-1.77,8.84-2.67,13.26-2.6,12.6-4.57,25.28-3.44,38.19.42,4.82,1.44,9.58,2.19,14.36l.87.2a28.1,28.1,0,0,0,3.28-4.19c3.47-6.76,7-13.51,10.11-20.42,6.41-14.09,12.81-28.19,18.76-42.48,1.94-4.65,2.54-9.87,3.66-14.86,2.16-9.57,4.25-19.16,6.37-28.75C695.8,134.84,695.9,134.25,696.06,133.37ZM611.4,240.52a18.23,18.23,0,0,0,1.86-2.27c2-3.55,4-7.05,5.75-10.73,4.73-10.27,9.13-20.71,14-30.91,2-4.18,1.17-7.77-1-11.22-2.33-3.77-4.34-3.81-7.21-.46a64.74,64.74,0,0,0-14.29,29.25A53.34,53.34,0,0,0,611.4,240.52Zm143.88-95.68c-4.1,4.08-9.49,15.53-10.55,22.29,4,1.23,8.86-1.89,11.83-7.58C759.79,153.38,759.36,148,755.28,144.84Z"/><path class="cls-1" d="M486.51,334.14c-3.54,5.49-6.94,11.53-11.1,17a70,70,0,0,1-11,11,19.48,19.48,0,0,1-13.11,4.31c-5-.11-9-2.29-11.07-6.9a46.41,46.41,0,0,1-2.88-31.09c2.12-8.43,9.79-13.84,19.54-13.79,5.58,0,11.17,1.38,16.74,2.2a35,35,0,0,1,4,1.14c2.85-9.21,5.68-18.35,8.56-27.67a80.06,80.06,0,0,1-8.31-1.11c-19.33-4.66-32.9-16.43-40.74-34.49-9.23-21.26-9.3-43.13-2.7-65.13a123.51,123.51,0,0,1,18.28-37.79c20.58-28.25,56.46-28.4,79.4-12.36,13.38,9.35,22.6,22,29.07,36.82A165,165,0,0,1,575,239.1c.41,17-.42,33.79-5.26,50.2a107.45,107.45,0,0,1-13.24,29.11c-12.18,18.42-29.5,24.87-50.75,21.27C499.17,338.57,492.86,336,486.51,334.14Zm16.58-51.94a48.81,48.81,0,0,0,14.38-10.72c19.67-20.63,25.61-57.19,13.49-83.64-6.59-14.38-18.2-21.26-33.75-22a6.81,6.81,0,0,1-1.72-.57c0-.3,0-.61.05-.91a18.51,18.51,0,0,1,4.43-.67c15.82,1.39,28.69,7.78,35.86,22.66,8.47,17.56,9.48,35.92,4.33,54.59-5.67,20.57-16.66,37-37,45.76a4,4,0,0,0-1.63,2.38c-3.43,10.77-6.79,21.58-10.16,32.37-.2.64-.42,1.27-.74,2.21,6.36,2.52,12.45,5.16,18.7,7.34a20.12,20.12,0,0,0,17.6-2,51.78,51.78,0,0,0,16.73-16.39,101.22,101.22,0,0,0,13.22-29.14c7.06-25.52,6.79-51.24,1.35-77-3.42-16.17-9.13-31.45-18.84-45-7.46-10.38-16.63-18.79-28.76-23.55-11.41-4.48-22-2.67-31.52,4.63a62.55,62.55,0,0,0-10.43,10.14c-12.34,15.23-19.69,32.88-23.83,51.86-3.33,15.25-3.46,30.57,1.11,45.68S459.2,277.31,474,284.06a28.76,28.76,0,0,0,12.66,2.83c.78-3.65,1.49-7.1,2.27-10.53,4.23-18.72,8.12-37.52,12.91-56.08,1.94-7.53,5.64-14.65,9-21.75a15.78,15.78,0,0,1,10-9c1.39-.4,3,0,4.19,0-2.22,4.65-4.43,8.67-6,12.91a70.17,70.17,0,0,0-3.42,12c-3.13,16.42-6,32.87-9,49.31C505.39,269.71,504.28,275.69,503.09,282.2ZM474.24,326c-5.08-2.08-9.9-4.23-14.85-6-3.71-1.34-7.16-.2-10.18,2.2-4.2,3.35-6.14,7.88-6.7,13.09-.85,8-.51,15.91,4,22.78,3.95,6,4.89,5.07,8.73,1C464,349.64,469.2,338.23,474.24,326Z"/><path class="cls-1" d="M289.81,229.56c-2.42.88-4.64,1.52-6.71,2.46-12.91,5.85-25.23,12.6-34.28,23.91a107.27,107.27,0,0,0-7.59,11.5c-.94,1.54-2.11,2.42-3.6,1.58-.68-.38-1.1-2.1-.89-3.06a36.48,36.48,0,0,1,11.67-20.06,97.23,97.23,0,0,1,36-20.3l3-1c.4-2.93,1.23-3.66,4.13-2.78a13,13,0,0,0,7,0c16.18-3.74,32.65-5.23,49.17-6.33,18.88-1.26,37.87-1.61,56.43-5.87,21.08-4.84,40.61-13.07,56.95-27.61,12-10.66,21.14-23.31,25.14-39.16,1.55-6.13,2.18-12.39.8-18.65a20.31,20.31,0,0,0-2.36-5.87c-3.94-6.74-7.78-8.34-15.2-6.2-2.68.77-5.12,2.29-7.74,3.3a20.78,20.78,0,0,1-3.82.7l-.52-1a13.78,13.78,0,0,1,2.81-2.66c5.33-2.75,11-4.49,17.06-4.21,6.91.32,14,7,15.51,15,1.85,10,.26,19.8-3.57,29.11-7.48,18.2-20.24,32.06-36.57,42.66-18.2,11.81-38.36,18.67-59.74,21.4-16.48,2.11-33.11,3-49.69,4.38-14.38,1.19-28.73,2.5-42.82,5.82-.67.16-1.33.39-2.29.67,4.7,10.44,2.56,20.69-.28,30.93-.82,3-1.72,6-2.24,9-2,11.75-4.2,23.5-5.8,35.31a57.39,57.39,0,0,0,1.83,22.63c1.4,5.16,2.94,5.57,6.9,1.95a30.31,30.31,0,0,0,4.8-5.62c5.4-8.18,9.12-17.19,12.07-26.47,1.1-3.47.72-7.38,1.46-11,2.69-13.16,5.59-26.28,8.36-39.42a69.76,69.76,0,0,0,1.34-8.37c.17-2,1.17-2.55,2.93-2.44a7,7,0,0,1,6.6,7.1,69,69,0,0,1-1.33,14.7c-2.94,14.2-6.3,28.31-9.45,42.47a17,17,0,0,0-.35,6q3-7,6-14.06a102,102,0,0,1,13.17-23,49.17,49.17,0,0,1,4.79-5.31,9.69,9.69,0,0,1,8.88-2.37c3.94.73,5.83,3.06,5.08,7a94.51,94.51,0,0,1-3.05,11c-2.32,7.24-4.89,14.43-5.19,22.13-.08,2,.22,4.09.34,6.13l.84.14c1.08-1.79,2.28-3.52,3.22-5.38,3.18-6.32,6.33-12.66,9.35-19.06a9.85,9.85,0,0,0,.69-4.09c0-9.78,2.54-18.7,8.66-26.46,3.88-4.92,8.93-7.11,15.18-6.11,3.7.59,5.43,2.42,5.94,6.1,1,7-1.68,12.82-6.83,17.22-2.09,1.79-5.38,2.2-8.68,3.45a37.55,37.55,0,0,0,2.22,23.07c1.12,2.62,2.11,2.84,4.55,1.42a13,13,0,0,0,3-2.19c7.39-7.93,14.42-16.13,17.47-26.87.56-2,1.77-2.24,3.4-1.92,1.82.35,1.24,1.74.91,2.73-1.22,3.67-2.05,7.61-4,10.86a127.76,127.76,0,0,1-11.14,15.8c-8.22,10-21.73,8-27.2-3.66-.56-1.2-1-2.43-1.78-4.18-.61,1.15-1,1.93-1.43,2.73-2.92,6-5.57,12.06-8.85,17.81-2.74,4.79-8.87,5.17-12.62,1.08a12.84,12.84,0,0,1-3.35-5.6c-.79-3.93-1.59-8.12-1-12,.85-5.89,2.86-11.62,4.4-17.42a21.15,21.15,0,0,1,.81-2.13l-.75-.44c-3,4.62-6.51,9-9,13.93-4.64,9.33-8.68,19-13,28.47-.51,1.13-1.06,2.24-1.61,3.35-1,2-2.84,2.18-4.77,2s-2.93-1.47-3.11-3.36a73.11,73.11,0,0,0-1.39-9.75c-.41,1.11-.76,2.26-1.25,3.33-2.18,4.74-4.06,9.65-6.71,14.11a28.55,28.55,0,0,1-7.09,7.74c-4.65,3.57-10.64,2.81-14.67-1.45-5-5.3-7.27-11.85-8.14-18.93-1.58-12.84,1.27-25.2,4.5-37.44,2.36-9,5.26-17.8,7.94-26.69C291.28,240.55,291.76,235.29,289.81,229.56Zm93.79,38.16c3.69.71,6.75-1.78,9.16-6.77,2.16-4.48,1.74-8.6-1.79-11.54C388.47,255.63,386.06,261.62,383.6,267.72Z"/><path class="cls-1" d="M0,335.58c.34-1.36.7-2.72,1-4.09.42-1.8,1.41-2.32,3.21-1.42-2.57,8-.16,15.46,3.1,22.57a165.62,165.62,0,0,0,9.49,17.14c4.53,7.42,11.46,9.53,19.73,8.07,9.18-1.62,17.23-5.78,24.71-11.14a119,119,0,0,0,24.32-23.58c.26-.32.46-.7.7-1.06-3-1.93-6-3.58-8.75-5.67-15.25-11.81-24.44-27.54-27.71-46.3-5.47-31.45,2.8-59.08,25.11-82.16,6.08-6.3,13.34-10.83,22.22-12.1,12.35-1.75,22.08,3.4,27.7,14.56,4,7.88,5.58,16.4,6.28,25.07,1.76,21.62-2.93,42.21-10.35,62.32a160,160,0,0,1-23.6,42.85c-.21.27-.38.57-.74,1.13a55.26,55.26,0,0,0,21.23,2.58,98.1,98.1,0,0,0,89-87c2.21-20.05-1.91-39.08-10-57.36-8.63-19.46-20.45-36.94-33.12-53.95-7.66-10.28-15-20.81-22-31.56a51.63,51.63,0,0,1-8.78-29.6c.41-18.6,16.91-35.42,35.5-36.21a46.19,46.19,0,0,1,20,3.2c23.12,9.62,30.43,41.23,13.8,60-5.54,6.23-12.73,9.1-21,9.29-1.79,0-3.61-.71-5.41-1.1,0-.29,0-.59.08-.88.52-.1,1.11-.42,1.55-.28,7.58,2.4,14-.6,19.28-5.29,9.34-8.29,12.95-19,10.59-31.4s-9-22.16-20.84-27.35c-16-7-28.88-.84-36.43,12.81C145.33,76,145,85,147.47,94.2c3.25,12,10,22,17.25,31.76,9.42,12.63,19.33,24.9,28.42,37.75,10.82,15.29,20,31.58,25.65,49.57,14.79,46.79-3.81,94.12-46.86,119.19-17.22,10-35.74,15.91-55.79,15.64-6.74-.08-13.48-1.6-20.18-2.71-1.61-.27-2.52-.13-3.6,1.11C82.55,357.73,71.48,367.42,57.93,374c-9,4.36-18.5,7.12-28.69,6.22-6.1-.53-11.28-3-14.84-8.16C8.14,362.92,3,353.28.73,342.35.45,341,.24,339.61,0,338.24Zm88.94,3.13c.74-1,1.43-1.89,2.09-2.82a185,185,0,0,0,27.27-58.08c4.64-16.74,7.12-33.75,4.4-51.17-1.26-8.13-3.3-16-8.9-22.35-5-5.76-11.25-7.66-18.65-5.36a40.9,40.9,0,0,0-15.92,9.78c-12.26,11.6-19.89,25.9-23.77,42.17-5.77,24.18-3,47.11,11.21,68A57.87,57.87,0,0,0,88.94,338.71Z"/><path class="cls-1" d="M284.47,151.39c1.12-2.4,2.35-5.21,3.73-7.95,2-3.95,8.59-5.42,11.85-2.45.78.71,1,2.61.75,3.79-1.25,5.34-2.91,10.57-4.17,15.91-2.66,11.18-5.7,22.33-5.07,34,.27,5,1.05,10,3.8,14.65a19.21,19.21,0,0,0,8.08-7.69c3.66-6.06,6.85-12.4,10.65-18.36,3.42-5.35,4.18-10.59,2.91-16.93-2.18-10.93-.68-21.86,2.7-32.47a26.53,26.53,0,0,1,7.57-11.68,11.73,11.73,0,0,1,8.94-3.33c3.08.2,4.7,1.51,4.16,4.52-1.38,7.63-3.12,15.2-5,22.73a44.37,44.37,0,0,1-3.39,9.2,26.6,26.6,0,0,0-2.3,16c.88,6.55,2.3,12.89,5.47,18.73,2.63,4.85,5,5.25,8.52,1a48.68,48.68,0,0,0,6.25-10.11c5.81-12.4,9.24-25.6,12.22-38.91.75-3.36,1.36-6.74,2.06-10.21a14.35,14.35,0,0,0-1.62-.6c-4.9-1.15-8-4.07-8.8-9.11A13,13,0,0,1,359.07,109a7.46,7.46,0,0,1,7.58-1,5.26,5.26,0,0,1,2.76,3.44,79.39,79.39,0,0,1,.48,10.8,48.89,48.89,0,0,1-.68,5.82,22,22,0,0,0,4.61-1.27,35,35,0,0,0,6.42-4.17,9.66,9.66,0,0,0,2.84-4.25c2.2-7,5.05-13.64,9.93-19.2,4.67-5.32,10.56-8.19,17.79-7.9a8.59,8.59,0,0,1,7.83,5c4,7.75,1.28,20.11-5.62,25.4-3.69,2.83-7.91,3.26-12.84,2.36-.92,4.55-2,9-2.7,13.48-1.18,7.56-1.85,15.16.89,22.56a34.62,34.62,0,0,0,3.25,6.64c1.82,2.84,4.06,3.62,7.09,2a24.63,24.63,0,0,0,7.27-5.54c9.2-10.83,15.49-23.42,21.17-36.32.77-1.74,1.42-3.1,3.91-1.89a24.28,24.28,0,0,1-.9,3.72c-5.17,12.55-11.07,24.71-19.36,35.56-4.61,6-10.68,8.85-18.28,8a15.89,15.89,0,0,1-9.57-4.74c-9.29-9.17-13-20.41-12.4-33.25.11-2.47.4-4.93.65-7.9a33.3,33.3,0,0,1-3.63,2.33,25.85,25.85,0,0,1-6.35,2.49c-2.17.36-2.84,1.25-3.23,3.25-3.06,15.74-6.7,31.33-12.82,46.21a53,53,0,0,1-5.19,9.83c-5.78,8.48-15.77,9.1-22.48,1.3-2.8-3.25-4.84-7.15-7.28-10.83-.32.56-.78,1.37-1.23,2.18-3.62,6.49-7.12,13.05-10.93,19.43a29.33,29.33,0,0,1-5.6,6.67c-5.43,4.82-12.67,3.93-16.87-1.94a39.53,39.53,0,0,1-6.75-17.13,2.59,2.59,0,0,0-.72-1.49c-.36.8-.73,1.59-1.08,2.38-2.94,6.63-5.75,13.32-8.89,19.85a30.68,30.68,0,0,1-4.88,7.22,12.22,12.22,0,0,1-18.85-.51c-4.09-4.91-6-10.88-6.89-17-2.39-17.27,2.34-32.89,12.62-46.66,6.75-9,17.39-12,26.38-8C279.33,147.15,281.68,149.42,284.47,151.39ZM255.4,218.81a36.88,36.88,0,0,0,4.39-3.93,36.35,36.35,0,0,0,5-7.45c4.7-10.67,9.12-21.45,13.63-32.2a6.92,6.92,0,0,0,.3-1.29c1.05-4.92,2.12-9.83,3.12-14.76a4.65,4.65,0,0,0,0-2.54,14.61,14.61,0,0,0-7.34-8c-2.9-1.38-5.8-1.46-8.13.85s-4.77,4.66-6.18,7.48c-7.5,15-11.41,30.78-9.46,47.64C251.29,209.37,252.14,214.2,255.4,218.81ZM411.17,97a15.16,15.16,0,0,0-1.95,2.74c-2.58,6.45-5.13,12.91-7.55,19.41-.62,1.68,1.25,3.24,3.28,2.59a11.16,11.16,0,0,0,4.27-2.47,17.84,17.84,0,0,0,5.71-14.5A11.3,11.3,0,0,0,411.17,97Zm-75.48,29.43-1.44-.2q-1.77,8.73-3.53,17.48l.9.19Q333.65,135.17,335.69,126.43Z"/><path class="cls-1" d="M757.08,281.05c-19.1-.54-37.93-3.23-56.71-6.34-17.14-2.83-34.34-5.16-51.77-3.91-17.58,1.26-34.26,5.41-48.41,16.69a45.19,45.19,0,0,0-13,15.56c-.26.54-1.3,1.22-1.7,1.07-.77-.29-1.94-1.18-1.89-1.71.26-2.4.4-5,1.45-7.1,3.91-7.82,10.17-13.55,17.55-18,13.22-8,27.85-11.65,43.07-13,23-2.07,45.56.86,68.09,5,17.84,3.26,35.73,6.45,54,6.15,25.31-.41,46.86-9.13,63-29.3,9.14-11.45,14.91-24.35,14.37-39.27-.35-9.58-4.09-17.68-12.92-22.67-4.16-2.35-8.2-2.4-12.28.18a25.31,25.31,0,0,0-9.94,11.1,9.61,9.61,0,0,0,.64,9.39,2.77,2.77,0,0,0,2.39,1.09,50.68,50.68,0,0,0,5.4-3.05,6.5,6.5,0,0,1,2.47-1.2c.95-.06,2.45.21,2.78.83s-.1,2.09-.64,2.89c-2.36,3.47-12.18,6-17.52,4.63A14,14,0,0,1,795,198.87c-.59-4.21,1.13-7.63,3.76-10.67,7-8.11,16-11.75,26.64-11.26,16.41.75,26.52,12.75,25.72,30.4-.76,16.77-7.44,31.12-18.14,43.79-14.76,17.45-34.07,26-56.34,28.54C770.17,280.41,763.61,280.6,757.08,281.05Z"/></g></g></svg>